<?xml version="1.0" encoding="UTF-8"?>
<svg version="1.1" xmlns="http://www.w3.org/2000/svg" width="48" height="48">
<path d="M0 0 C15.84 0 31.68 0 48 0 C48 15.84 48 31.68 48 48 C32.16 48 16.32 48 0 48 C0 32.16 0 16.32 0 0 Z " fill="#C8BEE5" transform="translate(0,0)"/>
<path d="M0 0 C-1.32 0.33 -2.64 0.66 -4 1 C-2.16370615 4.2645224 -0.10731726 7.10543369 2.25 10 C4.98264623 13.60954017 4.98264623 13.60954017 5.125 16.8125 C3.69022043 19.60234917 2.84503687 20.6139564 0 22 C-4.37102953 22.57442688 -8.23177985 22.51214677 -12 20 C-11.67 19.34 -11.34 18.68 -11 18 C-8.36 18.99 -5.72 19.98 -3 21 C-4.83629385 17.7354776 -6.89268274 14.89456631 -9.25 12 C-11.98264623 8.39045983 -11.98264623 8.39045983 -12.125 5.1875 C-9.30925183 -0.28756589 -5.82877905 -0.33627571 0 0 Z " fill="#E31F26" transform="translate(30,13)"/>
<path d="M0 0 C2.31 0 4.62 0 7 0 C5.68 0.33 4.36 0.66 3 1 C4.83629385 4.2645224 6.89268274 7.10543369 9.25 10 C11.98264623 13.60954017 11.98264623 13.60954017 12.125 16.8125 C10.69022043 19.60234917 9.84503687 20.6139564 7 22 C2.62897047 22.57442688 -1.23177985 22.51214677 -5 20 C-4.67 19.34 -4.34 18.68 -4 18 C-1.36 18.99 1.28 19.98 4 21 C4.66 19.68 5.32 18.36 6 17 C5.34 17 4.68 17 4 17 C3.67 16.01 3.34 15.02 3 14 C4.32 12.68 5.64 11.36 7 10 C6.175 9.2575 5.35 8.515 4.5 7.75 C2 5 2 5 2 1 C1.34 0.67 0.68 0.34 0 0 Z " fill="#D22E44" transform="translate(23,13)"/>
<path d="M0 0 C1.98 0 3.96 0 6 0 C5.319375 0.53625 4.63875 1.0725 3.9375 1.625 C1.74435204 3.84631261 1.74435204 3.84631261 1.8125 6.75 C3.28447839 10.77857243 5.5290387 13.13324471 8.50390625 16.16796875 C10 18 10 18 10 21 C6.62294375 20.46274105 3.303314 19.88935377 0 19 C0.495 17.515 0.495 17.515 1 16 C1.99 16 2.98 16 4 16 C3.67 14.68 3.34 13.36 3 12 C2.34 12 1.68 12 1 12 C-0.26237731 9.47524538 -0.09856404 7.68799534 -0.0625 4.875 C-0.05347656 3.96492188 -0.04445313 3.05484375 -0.03515625 2.1171875 C-0.02355469 1.41851562 -0.01195313 0.71984375 0 0 Z " fill="#DCAFC9" transform="translate(17,13)"/>
<path d="M0 0 C2.64 0 5.28 0 8 0 C8 0.66 8 1.32 8 2 C9.32 2.33 10.64 2.66 12 3 C11.67 3.99 11.34 4.98 11 6 C9.68 6 8.36 6 7 6 C7.33 7.32 7.66 8.64 8 10 C5.5 8.1875 5.5 8.1875 3 6 C3 5.01 3 4.02 3 3 C2.01 2.67 1.02 2.34 0 2 C0 1.34 0 0.68 0 0 Z " fill="#D6A3C8" transform="translate(23,11)"/>
<path d="M0 0 C1.32 0 2.64 0 4 0 C4.33 1.98 4.66 3.96 5 6 C4.38125 6.103125 3.7625 6.20625 3.125 6.3125 C0.63473516 6.87525373 0.63473516 6.87525373 -1 10 C-3 7 -3 7 -2.75 4.4375 C-2 2 -2 2 0 0 Z " fill="#DC272E" transform="translate(21,14)"/>
<path d="M0 0 C5.75 0.75 5.75 0.75 8 3 C6.68 3 5.36 3 4 3 C4.33 4.32 4.66 5.64 5 7 C2.5 5.1875 2.5 5.1875 0 3 C0 2.01 0 1.02 0 0 Z " fill="#E1B0D8" transform="translate(26,14)"/>
</svg>
